<svg width="20" height="21" viewBox="0 0 20 21" fill="none" xmlns="http://www.w3.org/2000/svg">
<path d="M9 15.6785H11V11.6785H15V9.67847H11V5.67847H9V9.67847H5V11.6785H9V15.6785ZM10 20.6785C8.61667 20.6785 7.31667 20.4201 6.1 19.9035C4.88333 19.3701 3.825 18.6535 2.925 17.7535C2.025 16.8535 1.30833 15.7951 0.775 14.5785C0.258333 13.3618 0 12.0618 0 10.6785C0 9.29513 0.258333 7.99513 0.775 6.77847C1.30833 5.5618 2.025 4.50347 2.925 3.60347C3.825 2.70347 4.88333 1.99513 6.1 1.47847C7.31667 0.945133 8.61667 0.678467 10 0.678467C11.3833 0.678467 12.6833 0.945133 13.9 1.47847C15.1167 1.99513 16.175 2.70347 17.075 3.60347C17.975 4.50347 18.6833 5.5618 19.2 6.77847C19.7333 7.99513 20 9.29513 20 10.6785C20 12.0618 19.7333 13.3618 19.2 14.5785C18.6833 15.7951 17.975 16.8535 17.075 17.7535C16.175 18.6535 15.1167 19.3701 13.9 19.9035C12.6833 20.4201 11.3833 20.6785 10 20.6785ZM10 18.6785C12.2333 18.6785 14.125 17.9035 15.675 16.3535C17.225 14.8035 18 12.9118 18 10.6785C18 8.44513 17.225 6.55347 15.675 5.00347C14.125 3.45347 12.2333 2.67847 10 2.67847C7.76667 2.67847 5.875 3.45347 4.325 5.00347C2.775 6.55347 2 8.44513 2 10.6785C2 12.9118 2.775 14.8035 4.325 16.3535C5.875 17.9035 7.76667 18.6785 10 18.6785Z" fill="white"/>
</svg>